<svg xmlns="http://www.w3.org/2000/svg" width="66.097" height="54.948" viewBox="0 0 66.097 54.948">
  <path id="Icon_metro-arrow-right" data-name="Icon metro-arrow-right" d="M46.824,59.391,69.255,34.5c1.788-1.788,1.788-1.71,0-3.5L46.824,7.125c-1.788-1.788-7.144-1.788-8.932,0s-1.788,6.04,0,7.828l21.2,15.067L9.078,28.679a4.579,4.579,0,0,0,0,9.158L59.095,36.5l-21.2,14.731c-.894.894-1.341,3.755-1.341,4.927a4.565,4.565,0,0,0,1.341,3.238C39.681,61.179,45.036,61.179,46.824,59.391Z" transform="translate(-4.499 -5.784)" fill="#d98800"/>
</svg>
